<?xml version="1.0" encoding="UTF-8" standalone="no"?>
<!-- Created with Inkscape (http://www.inkscape.org/) -->

<svg
   xmlns:dc="http://purl.org/dc/elements/1.1/"
   xmlns:cc="http://creativecommons.org/ns#"
   xmlns:rdf="http://www.w3.org/1999/02/22-rdf-syntax-ns#"
   xmlns:svg="http://www.w3.org/2000/svg"
   xmlns="http://www.w3.org/2000/svg"
   xmlns:sodipodi="http://sodipodi.sourceforge.net/DTD/sodipodi-0.dtd"
   xmlns:inkscape="http://www.inkscape.org/namespaces/inkscape"
   width="48"
   height="48"
   id="svg2"
   version="1.1"
   inkscape:version="0.47 r22583"
   sodipodi:docname="Novo documento 1">
  <defs
     id="defs4">
    <inkscape:perspective
       sodipodi:type="inkscape:persp3d"
       inkscape:vp_x="0 : 526.18109 : 1"
       inkscape:vp_y="0 : 1000 : 0"
       inkscape:vp_z="744.09448 : 526.18109 : 1"
       inkscape:persp3d-origin="372.04724 : 350.78739 : 1"
       id="perspective10" />
    <inkscape:perspective
       id="perspective2830"
       inkscape:persp3d-origin="0.5 : 0.33333333 : 1"
       inkscape:vp_z="1 : 0.5 : 1"
       inkscape:vp_y="0 : 1000 : 0"
       inkscape:vp_x="0 : 0.5 : 1"
       sodipodi:type="inkscape:persp3d" />
    <inkscape:perspective
       id="perspective2830-8"
       inkscape:persp3d-origin="0.5 : 0.33333333 : 1"
       inkscape:vp_z="1 : 0.5 : 1"
       inkscape:vp_y="0 : 1000 : 0"
       inkscape:vp_x="0 : 0.5 : 1"
       sodipodi:type="inkscape:persp3d" />
    <inkscape:perspective
       id="perspective2830-7"
       inkscape:persp3d-origin="0.5 : 0.33333333 : 1"
       inkscape:vp_z="1 : 0.5 : 1"
       inkscape:vp_y="0 : 1000 : 0"
       inkscape:vp_x="0 : 0.5 : 1"
       sodipodi:type="inkscape:persp3d" />
  </defs>
  <sodipodi:namedview
     id="base"
     pagecolor="#ffffff"
     bordercolor="#666666"
     borderopacity="1.0"
     inkscape:pageopacity="0.0"
     inkscape:pageshadow="2"
     inkscape:zoom="1"
     inkscape:cx="24"
     inkscape:cy="24"
     inkscape:document-units="px"
     inkscape:current-layer="layer1"
     showgrid="false"
     inkscape:window-width="1280"
     inkscape:window-height="727"
     inkscape:window-x="0"
     inkscape:window-y="25"
     inkscape:window-maximized="1" />
  <metadata
     id="metadata7">
    <rdf:RDF>
      <cc:Work
         rdf:about="">
        <dc:format>image/svg+xml</dc:format>
        <dc:type
           rdf:resource="http://purl.org/dc/dcmitype/StillImage" />
        <dc:title></dc:title>
      </cc:Work>
    </rdf:RDF>
  </metadata>
  <g
     inkscape:label="Camada 1"
     inkscape:groupmode="layer"
     id="layer1"
     transform="translate(0,-1004.3622)">
    <path
       style="fill:#808000;stroke:#000000;stroke-width:1.28043807px;stroke-linecap:butt;stroke-linejoin:miter;stroke-opacity:1"
       d="m 13.420958,1029.8119 c 0,0 -1.766871,-0.6437 -3.7300608,2.575 -1.963192,3.2185 6.4785268,6.2764 6.4785268,6.2764 0,0 3.337423,-0.6438 4.319019,-1.6094 0.981595,-0.9656 -2.15951,-2.8968 -3.337424,-2.253 -1.177914,0.6437 -3.337423,0.6437 -3.730061,-4.989 z"
       id="path2820-3" />
    <path
       style="fill:#808000;stroke:#000000;stroke-width:1.28043807px;stroke-linecap:butt;stroke-linejoin:miter;stroke-opacity:1"
       d="m 34.034454,1032.2259 c 0,0 -1.766871,-0.6437 -3.730061,2.575 -1.963191,3.2186 6.478527,6.2764 6.478527,6.2764 0,0 3.337424,-0.6438 4.31902,-1.6093 0.981595,-0.9657 -2.159511,-2.8969 -3.337425,-2.2531 -1.177914,0.6437 -3.337423,0.6437 -3.730061,-4.989 z"
       id="path2820-6" />
    <path
       style="fill:#808000;stroke:#000000;stroke-width:1.28043807px;stroke-linecap:butt;stroke-linejoin:miter;stroke-opacity:1"
       d="m 9.3419732,1032.1192 c 0,0 15.9999998,14.9668 34.0613488,-0.4829 l -34.0613488,0.4829 z"
       id="path2818" />
    <path
       style="fill:#808000;stroke:#000000;stroke-width:1.28043807px;stroke-linecap:butt;stroke-linejoin:miter;stroke-opacity:1"
       d="m 17.035224,1032.1192 c 0,0 -1.766871,-0.6437 -3.730061,2.575 -1.963191,3.2185 6.478527,6.2764 6.478527,6.2764 0,0 3.337423,-0.6438 4.319019,-1.6094 0.981595,-0.9656 -2.15951,-2.8968 -3.337424,-2.253 -1.177914,0.6437 -3.337423,0.6437 -3.730061,-4.989 z"
       id="path2820" />
    <path
       style="fill:#808000;stroke:#000000;stroke-width:1.28043807px;stroke-linecap:butt;stroke-linejoin:miter;stroke-opacity:1"
       d="m 42.323568,1029.5443 c 0,0 2.257669,4.667 4.02454,0.8047 0,0 -3.631902,8.8512 -4.02454,-0.8047 z"
       id="path2862" />
    <path
       style="fill:#808000;stroke:#000000;stroke-width:1.28043807px;stroke-linecap:butt;stroke-linejoin:miter;stroke-opacity:1"
       d="m 36.684761,1031.4212 c 0,0 -1.766871,-0.6437 -3.730061,2.575 -1.963191,3.2186 6.478527,6.2765 6.478527,6.2765 0,0 3.337423,-0.6439 4.319019,-1.6094 0.981595,-0.9657 -2.15951,-2.8969 -3.337424,-2.253 -1.177914,0.6436 -3.337423,0.6436 -3.730061,-4.9891 z"
       id="path2820-9" />
    <path
       style="fill:#008000;stroke:#000000;stroke-width:1.28043807px;stroke-linecap:butt;stroke-linejoin:miter;stroke-opacity:1"
       d="m 8.5566972,1031.4755 c 0,0 15.4110428,-35.8885 35.5337418,0 0,0 -18.159509,5.9546 -35.5337418,0 z"
       id="path2816" />
    <g
       id="g2870"
       transform="matrix(1,0,0,1.6395217,0.70393612,-656.71933)">
      <path
         transform="translate(0,1004.3622)"
         id="path2864"
         d="m 10.306748,25.717791 c 0,0 -1.9631897,-0.392638 -2.5521468,-4.319018 -0.588957,-3.92638 -4.8098159,-0.981595 -5.202454,0.687117 -0.392638,1.668711 3.5337424,1.668711 3.5337424,1.668711 0,0 1.1779141,3.730062 2.7484662,3.730062 1.5705522,0 1.5705522,-1.766872 1.4723922,-1.766872 z"
         style="fill:#808000;stroke:#000000;stroke-width:1px;stroke-linecap:butt;stroke-linejoin:miter;stroke-opacity:1" />
      <path
         id="path2868"
         d="m 4.823759,1025.4971 c 0,0 0.5770059,-0.8964 1.346347,0 0,0 -0.7693411,0.6605 -1.346347,0 z"
         style="fill:#000000;stroke:#000000;stroke-width:0.2426101px;stroke-linecap:butt;stroke-linejoin:miter;stroke-opacity:1" />
    </g>
    <path
       style="fill:#501616;stroke:none;stroke-width:1px;stroke-linecap:butt;stroke-linejoin:miter;stroke-opacity:1"
       d="m 12.551145,20.069282 c 0,0 2.121321,-3.358757 6.717515,-6.540738 l 3.535534,3.005204 0.353553,4.242641 -6.010408,1.414213 -4.596194,-2.12132 z"
       id="path3010"
       transform="translate(0,1004.3622)" />
    <path
       style="fill:#501616;stroke:none;stroke-width:1px;stroke-linecap:butt;stroke-linejoin:miter;stroke-opacity:1"
       d="m 25.632621,17.594408 -0.176777,5.656855 7.954951,3.18198 1.590991,-7.071068 -3.889088,-2.298097 -5.480077,0.53033 z"
       id="path3012"
       transform="translate(0,1004.3622)" />
    <path
       style="fill:#501616;stroke:none;stroke-width:1px;stroke-linecap:butt;stroke-linejoin:miter;stroke-opacity:1"
       d="m 16.970563,28.377787 4.24264,-4.949748 4.949748,2.474874 0.707107,3.535534 c 0,0 -7.247845,1.06066 -9.899495,-1.06066 z"
       id="path3014"
       transform="translate(0,1004.3622)" />
  </g>
</svg>
